<svg aria-hidden="true" style="position: absolute; width: 0; height: 0; overflow: hidden;" version="1.1" xmlns="http://www.w3.org/2000/svg" xmlns:xlink="http://www.w3.org/1999/xlink">
<defs>
<symbol id="icon-mine" viewBox="0 0 48 48">
<title>mine</title>
<path d="M23.5 1c-1.38 0-2.5 1.12-2.5 2.5v3.67c-1.39 0.2-2.73 0.57-4 1.070l-1.83-3.18c-0.7-1.19-2.22-1.6-3.42-0.91s-1.61 2.22-0.92 3.41l1.84 3.19c-1.080 0.86-2.060 1.84-2.92 2.92l-3.19-1.84c-1.19-0.69-2.72-0.28-3.41 0.92s-0.28 2.72 0.91 3.42l3.18 1.84c-0.5 1.26-0.87 2.6-1.070 3.99l-3.67 0c-1.38 0-2.5 1.12-2.5 2.5s1.12 2.5 2.5 2.5h3.67c0.2 1.391 0.57 2.73 1.070 3.99l-3.18 1.84c-1.19 0.7-1.6 2.22-0.91 3.42s2.22 1.609 3.41 0.92l3.19-1.84c0.86 1.080 1.84 2.061 2.92 2.92l-1.84 3.189c-0.69 1.19-0.28 2.721 0.92 3.41 1.2 0.69 2.72 0.28 3.42-0.91l1.83-3.179c1.27 0.5 2.61 0.87 4 1.070v3.67c0 1.38 1.12 2.5 2.5 2.5s2.5-1.12 2.5-2.5v-3.67c1.391-0.2 2.73-0.57 4-1.070l1.83 3.18c0.699 1.19 2.22 1.601 3.42 0.91 1.2-0.689 1.609-2.22 0.92-3.41l-1.84-3.189c1.080-0.859 2.061-1.84 2.92-2.92l3.189 1.84c1.19 0.689 2.721 0.28 3.41-0.92 0.69-1.2 0.28-2.72-0.91-3.42l-3.18-1.84c0.5-1.26 0.87-2.6 1.070-3.99h3.67c1.38 0 2.5-1.12 2.5-2.5s-1.119-2.501-2.499-2.501h-3.67c-0.2-1.39-0.57-2.73-1.070-3.99l3.18-1.84c1.19-0.7 1.601-2.22 0.91-3.42-0.689-1.2-2.22-1.61-3.41-0.92l-3.189 1.84c-0.859-1.080-1.84-2.060-2.92-2.92l1.84-3.19c0.689-1.19 0.28-2.72-0.92-3.41s-2.721-0.28-3.42 0.91l-1.831 3.18c-1.27-0.5-2.609-0.87-4-1.070v-3.67c0-1.38-1.12-2.5-2.5-2.5zM17 30c0-2.76 2.24-5 5-5s5 2.24 5 5-2.24 5-5 5-5-2.24-5-5zM27 20.5c0-1.93 1.57-3.5 3.5-3.5s3.5 1.57 3.5 3.5c0 1.93-1.57 3.5-3.5 3.5s-3.5-1.57-3.5-3.5zM19 15.5c0-1.38 1.12-2.5 2.5-2.5s2.5 1.12 2.5 2.5-1.12 2.5-2.5 2.5-2.5-1.12-2.5-2.5z"></path>
</symbol>
<symbol id="icon-night" viewBox="0 0 48 48">
<title>night</title>
<path d="M1 24.5c0 12.431 10.069 22.5 22.5 22.5 12.43 0 22.5-10.069 22.5-22.5 0-12.43-10.070-22.5-22.5-22.5-12.431 0-22.5 10.070-22.5 22.5zM6 24.5c0-5.1 2.18-9.689 5.66-12.89 0 0 0.279-0.271 0.359-0.33 0.25-0.19 0.57-0.31 0.92-0.31 0.83 0 1.5 0.67 1.5 1.5 0 0.109-0.129 0.729-0.129 0.729-0.201 1.071-0.31 2.171-0.31 3.301 0 9.67 7.83 17.5 17.5 17.5 1.090 0 2.15-0.1 3.18-0.29l0.48-0.11c0.109-0.020 0.22-0.039 0.34-0.039 0.83 0 1.5 0.67 1.5 1.5 0 0.37-0.13 0.699-0.35 0.959-0.041 0.051-0.261 0.32-0.34 0.4-3.19 3.44-7.749 5.58-12.81 5.58-9.67 0-17.5-7.83-17.5-17.5z"></path>
</symbol>
<symbol id="icon-sunny" viewBox="0 0 48 48">
<title>sunny</title>
<path d="M24.625 18c2.161 0.5 3.879 2.34 4.379 4.35 0.172 0.94 0.99 1.65 1.971 1.65 1.1 0 2-0.9 2-2 0-1.439-1.209-3.63-2.859-5.27-1.622-1.6-3.552-2.73-5.142-2.73-1.1 0-2 0.931-2 2.030 0.001 0.98 0.711 1.8 1.651 1.97zM5.975 23.5c0 1.010 0.080 2.010 0.25 2.971l-3.49 1.14c-1.32 0.43-2.040 1.84-1.61 3.149 0.43 1.32 1.84 2.030 3.15 1.61l3.49-1.14c0.89 1.8 2.080 3.43 3.5 4.81l-2.16 2.979c-0.81 1.12-0.56 2.681 0.56 3.49 1.11 0.811 2.68 0.57 3.49-0.55l2.161-2.979c1.73 0.92 3.64 1.56 5.66 1.84v3.68c0 1.38 1.12 2.5 2.5 2.5s2.5-1.12 2.5-2.5v-3.68c2.020-0.28 3.93-0.92 5.66-1.84l2.16 2.979c0.811 1.12 2.381 1.36 3.49 0.55 1.119-0.81 1.369-2.37 0.561-3.49l-2.17-2.979c1.43-1.38 2.619-3.010 3.5-4.81l3.5 1.14c1.309 0.42 2.719-0.29 3.148-1.61 0.43-1.31-0.289-2.72-1.609-3.149l-3.49-1.14c0.17-0.961 0.25-1.961 0.25-2.971s-0.080-2.010-0.25-2.97l3.49-1.141c1.32-0.43 2.039-1.84 1.609-3.149-0.43-1.32-1.84-2.030-3.148-1.61l-3.5 1.14c-0.881-1.799-2.070-3.43-3.5-4.819l2.17-2.97c0.809-1.12 0.559-2.681-0.561-3.49-1.109-0.81-2.68-0.57-3.49 0.55l-2.16 2.97c-1.74-0.91-3.641-1.55-5.66-1.829l-0-3.682c0-1.38-1.12-2.5-2.5-2.5s-2.5 1.12-2.5 2.5v3.681c-2.020 0.279-3.93 0.919-5.66 1.829l-2.161-2.97c-0.81-1.12-2.38-1.359-3.49-0.55-1.12 0.81-1.37 2.37-0.56 3.49l2.16 2.97c-1.42 1.39-2.61 3.021-3.5 4.819l-3.49-1.14c-1.31-0.42-2.72 0.29-3.15 1.61-0.43 1.31 0.29 2.72 1.61 3.149l3.49 1.141c-0.17 0.961-0.25 1.961-0.25 2.971zM10.975 23.5c0-6.9 5.6-12.5 12.5-12.5s12.5 5.6 12.5 12.5-5.6 12.5-12.5 12.5c-6.9 0-12.5-5.6-12.5-12.5z"></path>
</symbol>
</defs>
</svg>
